<?xml version="1.0" standalone="no"?>
<!DOCTYPE svg PUBLIC "-//W3C//DTD SVG 20010904//EN"
 "http://www.w3.org/TR/2001/REC-SVG-20010904/DTD/svg10.dtd">
<svg version="1.0" xmlns="http://www.w3.org/2000/svg"
 width="5000.000000pt" height="5000.000000pt" viewBox="0 0 5000.000000 5000.000000"
 preserveAspectRatio="xMidYMid meet">
<metadata>
Created by potrace 1.14, written by Peter Selinger 2001-2017
</metadata>
<g transform="translate(0.000000,5000.000000) scale(0.100000,-0.100000)"
fill="#000000" stroke="none">
<path d="M24749 49016 c-2 -2 -50 -7 -106 -10 -55 -4 -112 -9 -125 -11 -12 -2
-49 -6 -82 -10 -32 -4 -68 -8 -80 -10 -11 -2 -39 -6 -61 -10 -35 -5 -70 -10
-125 -20 -103 -19 -324 -70 -415 -96 -89 -26 -284 -87 -310 -98 -11 -5 -54
-21 -95 -36 -41 -16 -98 -39 -127 -52 -28 -12 -54 -23 -56 -23 -2 0 -40 -17
-83 -37 -43 -20 -81 -37 -84 -38 -23 -5 -278 -144 -495 -270 -49 -29 -250
-145 -445 -257 -596 -344 -619 -357 -825 -476 -110 -64 -238 -138 -285 -165
-47 -26 -98 -56 -115 -66 -16 -10 -122 -71 -235 -136 -113 -65 -248 -142 -300
-173 -52 -30 -115 -66 -139 -80 -25 -13 -68 -38 -95 -55 -28 -16 -67 -39 -86
-50 -19 -10 -181 -104 -360 -207 -179 -103 -343 -198 -365 -210 -22 -12 -78
-45 -125 -73 -47 -27 -103 -60 -125 -72 -56 -31 -217 -124 -235 -135 -17 -11
-620 -359 -690 -398 -25 -14 -74 -42 -109 -64 -34 -21 -65 -38 -67 -38 -2 0
-32 -17 -66 -38 -35 -21 -70 -42 -78 -46 -8 -4 -24 -12 -35 -19 -11 -7 -67
-39 -125 -72 -57 -33 -112 -64 -121 -70 -21 -12 -109 -63 -169 -97 -43 -25
-193 -112 -255 -148 -16 -10 -73 -42 -125 -72 -52 -30 -153 -88 -225 -130
-282 -163 -326 -188 -335 -188 -6 0 -10 -4 -10 -10 0 -5 -4 -10 -10 -10 -9 0
-62 -30 -258 -147 -40 -24 -74 -43 -76 -43 -4 0 -321 -184 -346 -200 -8 -6
-22 -13 -30 -17 -8 -4 -59 -33 -113 -65 -54 -32 -100 -58 -101 -58 -2 0 -65
-36 -140 -80 -75 -44 -140 -80 -145 -80 -5 0 -11 -4 -13 -8 -2 -4 -30 -23 -63
-41 -68 -39 -111 -63 -157 -90 -276 -158 -439 -253 -513 -296 -49 -29 -110
-63 -135 -77 -25 -14 -107 -62 -184 -107 -76 -44 -140 -81 -141 -81 -3 0 -182
-103 -225 -130 -13 -8 -218 -126 -349 -201 -95 -55 -767 -443 -796 -460 -16
-10 -46 -26 -65 -37 -19 -11 -134 -77 -255 -147 -121 -70 -236 -137 -255 -148
-60 -33 -492 -283 -750 -432 -135 -78 -351 -203 -480 -277 -129 -75 -251 -145
-270 -157 -19 -11 -51 -29 -70 -40 -19 -10 -267 -153 -550 -317 -283 -163
-533 -307 -555 -319 -22 -13 -123 -71 -225 -130 -102 -59 -210 -121 -240 -138
-30 -16 -59 -33 -65 -37 -17 -13 -518 -300 -523 -300 -3 0 -13 -6 -21 -14 -9
-7 -41 -27 -71 -44 -51 -28 -220 -124 -258 -147 -9 -6 -51 -30 -92 -53 -41
-24 -97 -57 -125 -73 -27 -16 -59 -34 -70 -39 -11 -6 -36 -20 -55 -31 -32 -19
-132 -77 -492 -285 -70 -41 -142 -82 -160 -92 -46 -27 -183 -106 -548 -317
-173 -101 -337 -195 -365 -210 -399 -221 -756 -487 -1060 -790 -159 -159 -242
-249 -329 -360 -22 -27 -43 -52 -46 -55 -14 -10 -150 -199 -227 -315 -157
-235 -332 -563 -423 -795 -23 -58 -45 -114 -51 -125 -47 -99 -182 -564 -203
-700 -4 -22 -8 -47 -11 -55 -19 -66 -56 -329 -73 -525 -10 -116 -9 -20010 2
-20135 4 -58 9 -107 11 -110 2 -3 6 -39 10 -80 4 -41 9 -84 11 -95 4 -21 9
-46 25 -140 23 -134 73 -353 103 -453 55 -177 71 -226 98 -302 17 -47 36 -98
43 -115 173 -422 335 -719 565 -1035 194 -268 449 -548 685 -755 44 -39 82
-72 85 -75 3 -3 25 -21 50 -40 25 -19 47 -37 50 -41 3 -3 57 -44 120 -91 214
-158 260 -187 1120 -683 113 -65 219 -126 235 -135 17 -9 75 -43 130 -75 439
-253 865 -499 910 -525 17 -9 128 -74 248 -143 120 -70 237 -137 260 -150 23
-13 125 -72 226 -130 101 -59 185 -107 187 -107 2 0 28 -16 58 -35 30 -19 57
-35 59 -35 3 0 34 -17 68 -38 35 -21 89 -52 119 -69 79 -44 623 -359 699 -404
34 -22 65 -39 67 -39 2 0 187 -106 411 -236 224 -130 428 -248 453 -262 25
-13 50 -28 55 -32 6 -4 37 -22 70 -40 67 -37 152 -86 175 -100 18 -11 159 -94
215 -125 22 -13 96 -56 165 -95 69 -40 213 -123 320 -185 209 -120 382 -220
910 -525 184 -107 362 -209 395 -227 33 -19 75 -43 94 -54 133 -79 482 -279
486 -279 3 0 18 -9 33 -19 15 -10 151 -90 302 -177 151 -86 339 -195 417 -241
78 -46 143 -83 146 -83 2 0 45 -25 95 -55 50 -30 96 -55 102 -55 5 0 10 -4 10
-9 0 -5 6 -11 13 -13 10 -2 257 -141 317 -179 21 -12 624 -360 680 -391 25
-14 108 -62 184 -107 76 -44 141 -81 143 -81 3 0 17 -8 31 -18 15 -11 52 -32
82 -49 30 -17 180 -103 334 -192 153 -88 282 -161 287 -161 5 0 9 -4 9 -9 0
-5 6 -11 13 -13 7 -2 78 -40 157 -86 186 -107 175 -100 247 -144 34 -21 65
-38 67 -38 4 0 167 -94 226 -129 8 -5 111 -65 229 -133 117 -68 232 -134 255
-147 22 -13 55 -31 71 -41 17 -9 134 -77 260 -150 127 -73 249 -143 272 -156
23 -13 92 -53 153 -89 61 -36 115 -65 121 -65 5 0 9 -4 9 -10 0 -5 4 -10 9
-10 8 0 95 -49 396 -224 44 -25 87 -51 95 -56 8 -6 22 -13 30 -17 8 -4 69 -38
135 -76 66 -39 133 -78 150 -87 140 -79 778 -447 805 -465 30 -19 70 -41 237
-136 55 -31 86 -49 411 -238 173 -99 316 -181 319 -181 2 0 24 -13 48 -30 24
-16 46 -30 48 -30 2 0 97 -54 211 -120 114 -66 211 -120 217 -120 5 0 9 -4 9
-10 0 -5 4 -10 10 -10 5 0 55 -27 111 -60 55 -33 102 -60 104 -60 3 0 154 -87
225 -130 276 -164 528 -299 700 -374 47 -21 99 -44 115 -51 105 -47 330 -126
502 -176 106 -31 120 -34 166 -44 12 -2 42 -9 67 -15 97 -24 190 -43 274 -56
21 -3 48 -7 59 -10 23 -4 148 -21 217 -29 239 -27 765 -28 975 -1 17 2 59 7
95 11 323 34 778 151 1135 292 160 63 403 178 538 254 50 29 106 60 122 69 17
9 118 68 225 130 107 62 210 121 229 132 278 159 772 445 793 459 15 11 29 19
32 19 4 0 316 179 661 380 238 138 414 239 470 270 33 18 67 39 76 46 8 8 18
14 22 14 4 0 44 22 89 49 46 26 157 91 248 143 91 52 257 148 370 213 113 65
225 129 250 143 25 13 52 31 61 38 8 8 18 14 22 14 4 0 44 22 89 49 46 26 174
100 285 164 110 64 387 224 615 355 227 131 433 250 458 264 25 14 144 83 265
153 121 70 245 141 275 157 30 17 62 37 71 44 8 8 18 14 21 14 3 0 82 44 175
98 94 55 177 102 184 106 8 4 32 18 54 31 22 14 51 30 65 37 14 7 48 27 77 45
29 18 54 33 56 33 3 0 44 24 93 53 49 29 114 67 144 84 30 16 179 102 330 190
152 87 282 162 290 166 8 4 29 16 45 26 17 10 104 61 195 113 91 52 189 109
218 127 29 17 57 31 62 31 6 0 10 5 10 10 0 6 4 10 9 10 5 0 92 48 193 107
101 58 199 115 218 125 74 41 97 54 155 89 33 20 80 48 105 61 25 14 277 159
560 323 283 164 646 373 805 465 329 189 563 324 745 430 156 90 162 94 290
167 58 33 156 90 219 127 62 36 115 66 116 66 2 0 91 52 155 90 8 5 65 37 125
72 61 34 119 68 130 75 11 7 26 15 34 19 25 13 175 100 245 142 37 23 70 42
71 42 2 0 140 79 306 175 166 96 304 175 307 175 3 0 13 6 21 14 9 7 41 27 71
43 30 17 71 40 90 51 19 12 42 25 50 29 8 3 47 25 85 48 66 40 266 155 545
314 69 39 132 75 140 81 8 5 60 35 115 67 55 32 112 64 126 73 14 8 80 46 145
83 65 38 135 78 154 89 19 11 152 88 295 170 246 142 394 228 440 255 11 7 26
15 34 19 8 4 64 36 125 72 61 36 127 74 146 84 19 11 64 37 100 58 131 76 157
91 235 135 44 25 87 50 95 55 69 42 222 130 226 130 2 0 23 12 47 27 23 15 51
32 62 38 25 13 234 133 278 159 41 24 511 295 682 393 215 124 472 300 645
442 290 238 607 573 805 851 22 30 42 57 45 60 3 3 36 52 75 110 208 314 385
667 508 1015 34 96 85 254 92 285 2 8 15 58 29 110 24 90 58 243 71 320 3 19
10 60 15 90 24 143 38 259 48 395 9 133 9 19973 -1 20095 -9 121 -15 167 -37
320 -21 138 -24 154 -45 255 -8 39 -16 81 -19 95 -5 31 -44 184 -56 225 -94
300 -143 436 -222 614 -66 151 -178 368 -261 506 -37 61 -74 124 -84 140 -10
17 -21 32 -24 35 -3 3 -25 34 -49 70 -152 226 -323 432 -540 651 -93 94 -150
147 -270 253 -69 61 -177 145 -295 230 -66 47 -124 90 -130 94 -27 20 -237
149 -385 234 -91 53 -181 105 -200 117 -19 11 -42 24 -50 28 -8 4 -87 49 -174
100 -87 51 -161 93 -163 93 -2 0 -36 19 -76 43 -39 24 -151 89 -247 144 -96
56 -332 192 -525 303 -192 111 -370 213 -394 227 -24 13 -109 62 -188 109 -79
46 -146 84 -149 84 -3 0 -17 8 -32 19 -23 15 -409 239 -549 317 -23 13 -90 52
-150 87 -59 35 -115 66 -123 70 -8 4 -28 16 -45 26 -30 18 -688 399 -820 474
-38 22 -134 77 -213 123 -79 46 -146 84 -149 84 -4 0 -14 6 -22 14 -9 8 -40
27 -69 42 -29 16 -61 34 -70 39 -9 6 -93 54 -187 108 -93 54 -177 102 -185
107 -8 5 -127 74 -265 153 -137 79 -398 230 -580 334 -181 105 -346 200 -365
211 -19 10 -132 75 -250 144 -118 68 -257 149 -309 179 -52 30 -106 61 -120
69 -14 9 -60 35 -101 58 -41 24 -82 47 -90 52 -50 31 -151 90 -154 90 -2 0
-55 30 -117 66 -63 37 -278 161 -479 277 -201 115 -378 218 -395 228 -16 10
-41 24 -55 32 -31 16 -474 272 -590 340 -47 27 -101 59 -120 70 -19 10 -82 46
-140 80 -58 33 -136 78 -175 100 -38 22 -82 48 -97 58 -15 11 -29 19 -32 19
-2 0 -37 19 -78 43 -40 24 -93 55 -118 69 -43 24 -218 125 -627 362 -106 61
-213 122 -237 136 -25 14 -71 40 -103 59 -32 19 -78 45 -103 59 -49 27 -104
60 -135 79 -11 7 -36 21 -55 31 -66 35 -565 324 -592 343 -15 11 -29 19 -32
19 -3 0 -43 22 -88 49 -185 109 -331 191 -339 191 -5 0 -9 5 -9 10 0 6 -4 10
-10 10 -5 0 -55 27 -111 60 -55 33 -102 60 -103 60 -2 0 -108 61 -236 135
-128 74 -235 135 -238 135 -3 0 -13 6 -21 14 -9 7 -45 29 -81 48 -36 20 -100
57 -143 82 -43 25 -79 46 -82 46 -2 0 -40 23 -85 50 -45 28 -83 50 -85 50 -2
0 -48 27 -103 59 -55 32 -124 72 -154 89 -29 16 -240 137 -468 269 -228 132
-430 249 -449 259 -18 10 -41 24 -50 29 -9 6 -90 53 -181 105 -91 52 -172 100
-181 105 -9 6 -32 19 -50 29 -19 10 -149 85 -289 166 -140 81 -271 157 -290
168 -19 11 -64 36 -100 57 -36 21 -83 48 -106 61 -22 12 -150 86 -283 163
-134 78 -247 141 -252 141 -5 0 -9 5 -9 10 0 6 -4 10 -10 10 -5 0 -47 22 -92
49 -46 27 -99 58 -118 68 -19 11 -183 106 -365 210 -528 305 -761 412 -1165
537 -178 54 -321 90 -490 122 -47 9 -94 18 -105 20 -10 2 -37 6 -60 9 -22 3
-67 10 -100 15 -33 5 -96 12 -140 16 -44 3 -89 9 -100 11 -23 6 -621 14 -626
9z m-1163 -12463 c-1 -6838 -4 -9087 -12 -9086 -7 1 -36 17 -65 34 -30 18 -72
42 -94 54 -22 13 -139 80 -260 150 -121 70 -236 136 -255 147 -19 11 -107 62
-195 113 -245 141 -357 206 -392 226 -65 37 -429 248 -463 268 -19 11 -42 24
-50 28 -8 4 -43 24 -78 45 -34 21 -64 38 -66 38 -2 0 -63 35 -137 78 -74 43
-154 90 -179 104 -25 14 -117 67 -205 118 -396 229 -804 465 -845 488 -25 13
-65 37 -90 52 -25 15 -126 74 -225 130 -99 57 -211 122 -250 145 -38 23 -77
45 -85 49 -8 4 -24 12 -35 19 -11 7 -94 54 -185 106 -91 52 -176 102 -190 111
-14 9 -50 30 -80 47 -60 33 -206 117 -338 194 -45 27 -85 49 -89 49 -4 0 -14
6 -22 14 -9 7 -41 27 -71 43 -30 17 -95 53 -144 82 -49 28 -93 51 -97 51 -5 0
-9 5 -9 10 0 6 -4 10 -10 10 -5 0 -64 32 -132 71 -67 40 -136 80 -153 89 -53
30 -399 230 -415 240 -8 5 -42 24 -75 43 -80 45 -103 59 -290 168 -88 51 -187
108 -220 126 -33 19 -76 43 -95 54 -19 12 -141 82 -270 156 -129 75 -278 161
-330 192 -52 30 -111 64 -130 74 -19 11 -87 50 -150 87 -63 37 -221 128 -350
202 -129 75 -251 145 -270 157 -19 11 -42 24 -50 28 -8 4 -104 59 -215 123
-110 65 -218 127 -240 139 -22 12 -47 26 -55 31 -22 14 -156 92 -315 183 -191
109 -177 101 -385 222 -102 59 -243 140 -315 182 -71 41 -137 78 -145 83 -21
13 -177 103 -220 127 -19 11 -107 62 -195 113 -175 101 -201 116 -290 167 -33
19 -67 38 -75 43 -56 36 -172 100 -180 100 -6 0 -10 5 -10 10 0 6 -4 10 -9 10
-5 0 -193 106 -418 236 -224 130 -426 246 -448 259 -97 55 -254 146 -585 337
-195 113 -370 214 -389 224 -18 10 -41 24 -50 29 -9 6 -90 53 -181 105 -91 52
-172 100 -181 105 -9 6 -32 19 -50 29 -30 17 -177 102 -909 524 -91 52 -180
103 -197 114 -48 27 -63 35 -483 278 -212 122 -398 230 -415 240 -466 268
-632 364 -643 372 -11 10 61 54 503 308 65 37 211 122 225 130 8 5 85 49 170
98 85 49 216 124 290 167 74 43 194 112 265 153 189 108 567 326 739 426 82
47 152 86 157 86 5 0 9 5 9 10 0 6 4 10 9 10 5 0 49 23 98 51 48 28 104 60
123 71 19 11 91 53 160 93 69 40 199 115 290 167 91 52 210 121 265 153 55 32
114 65 130 75 91 52 428 246 475 274 49 30 268 156 368 212 20 12 64 37 97 56
178 103 263 153 290 168 17 9 72 41 123 71 52 30 110 63 130 75 20 11 258 148
527 304 270 155 506 292 525 303 19 10 150 86 290 167 280 162 437 252 488
282 18 10 93 53 165 95 235 136 511 295 557 320 25 14 65 38 90 53 25 15 169
98 320 185 151 87 316 181 365 210 121 71 862 498 900 519 17 9 37 21 45 26 8
6 67 40 130 76 63 36 186 107 273 158 87 50 174 100 195 112 35 19 157 90 532
307 85 49 199 115 253 146 54 31 113 65 130 75 18 10 57 32 87 49 30 17 67 38
82 49 14 10 29 18 32 18 4 0 23 11 44 24 31 20 431 251 542 313 60 34 664 383
680 393 8 5 69 40 135 78 66 38 161 92 210 121 50 29 108 63 130 75 65 37 897
517 930 537 17 11 36 22 44 26 8 4 75 42 149 85 74 43 137 78 139 78 3 0 25
14 50 30 24 17 45 30 47 30 2 0 145 82 317 181 173 100 330 191 349 201 19 11
76 44 125 73 50 29 110 63 135 77 47 27 306 177 620 359 102 59 188 108 191
108 3 1 5 -4088 5 -9086z m3037 8975 c105 -61 207 -119 225 -129 116 -66 585
-336 622 -359 25 -16 62 -38 83 -49 21 -12 156 -89 300 -173 144 -83 277 -159
295 -169 75 -43 174 -100 292 -169 69 -40 143 -83 165 -95 22 -13 182 -105
355 -205 173 -100 333 -192 355 -205 22 -12 56 -31 75 -43 19 -12 44 -26 55
-32 22 -11 49 -27 200 -115 125 -73 794 -459 855 -493 25 -14 77 -44 115 -67
54 -32 348 -202 615 -355 8 -5 50 -29 93 -54 43 -25 79 -46 81 -46 3 0 302
-172 346 -199 14 -9 319 -185 414 -240 229 -131 393 -225 416 -239 43 -26 141
-83 175 -102 17 -9 104 -60 195 -112 91 -52 444 -256 785 -453 341 -196 652
-375 690 -398 39 -23 84 -49 100 -58 17 -9 55 -31 85 -49 30 -18 71 -42 90
-52 38 -22 417 -240 820 -473 140 -81 271 -156 290 -167 19 -11 64 -37 100
-58 36 -21 82 -47 103 -59 64 -36 94 -53 414 -239 172 -100 331 -192 354 -204
23 -13 49 -27 58 -33 9 -5 120 -70 246 -143 127 -73 237 -137 245 -142 43 -26
377 -217 390 -224 8 -4 31 -17 52 -29 69 -42 153 -91 193 -113 22 -12 108 -61
190 -109 83 -48 175 -101 205 -118 30 -17 79 -45 108 -64 29 -18 55 -33 59
-33 3 0 29 -14 57 -32 28 -17 65 -39 82 -48 128 -73 204 -116 234 -135 19 -12
161 -95 315 -183 314 -180 564 -324 643 -371 29 -17 55 -31 58 -31 2 0 22 -11
43 -24 21 -13 141 -84 267 -156 274 -158 257 -148 419 -242 252 -145 462 -266
655 -378 107 -62 211 -122 230 -132 83 -47 439 -253 480 -278 25 -15 71 -42
102 -59 32 -18 60 -36 62 -40 3 -4 -14 -18 -37 -30 -23 -12 -60 -33 -82 -46
-22 -13 -51 -29 -65 -37 -14 -8 -144 -83 -290 -168 -146 -84 -367 -212 -493
-284 -125 -72 -242 -139 -260 -150 -17 -10 -133 -77 -257 -149 -124 -71 -245
-141 -270 -155 -25 -14 -226 -130 -448 -259 -222 -128 -406 -233 -409 -233 -4
0 -14 -6 -22 -14 -9 -7 -36 -25 -61 -38 -52 -29 -413 -236 -545 -313 -49 -29
-107 -62 -127 -74 -60 -34 -99 -56 -154 -88 -27 -17 -70 -41 -95 -55 -24 -14
-87 -50 -139 -80 -239 -138 -520 -300 -810 -467 -173 -99 -322 -185 -330 -191
-14 -9 -89 -52 -205 -118 -185 -106 -813 -469 -923 -534 -73 -43 -135 -78
-136 -78 -2 0 -55 -30 -117 -66 -63 -37 -132 -77 -154 -89 -22 -13 -107 -62
-190 -110 -159 -93 -185 -108 -280 -162 -33 -19 -67 -38 -75 -43 -14 -9 -267
-155 -348 -202 -18 -10 -93 -53 -165 -95 -128 -73 -498 -287 -561 -323 -17
-10 -60 -34 -96 -55 -36 -21 -81 -46 -100 -57 -19 -11 -71 -41 -115 -67 -44
-26 -87 -50 -95 -54 -8 -4 -22 -11 -30 -17 -30 -19 -145 -86 -160 -93 -8 -4
-32 -17 -52 -29 -30 -19 -331 -193 -463 -268 -51 -29 -528 -305 -760 -440
-121 -70 -240 -138 -265 -152 -25 -14 -144 -83 -265 -153 -121 -70 -238 -137
-260 -150 -22 -12 -139 -80 -260 -150 -121 -70 -294 -170 -385 -222 -91 -53
-223 -129 -295 -171 -71 -41 -167 -97 -213 -123 -45 -27 -84 -49 -86 -49 -2 0
-33 -17 -67 -38 -35 -22 -84 -50 -109 -64 -43 -24 -527 -303 -600 -346 -19
-12 -62 -36 -95 -55 -33 -18 -144 -83 -248 -143 -103 -60 -204 -118 -225 -130
-44 -24 -750 -430 -772 -444 -17 -10 -726 -420 -753 -435 -9 -5 -104 -60 -210
-121 -466 -270 -703 -405 -712 -407 -6 -1 -10 3120 -10 9086 0 4998 1 9087 2
9087 2 0 90 -50 196 -112z m-20131 -12532 c194 -196 984 -999 1112 -1129 76
-78 349 -356 606 -617 258 -261 528 -536 600 -610 73 -74 331 -337 574 -583
242 -247 521 -530 619 -630 98 -100 382 -389 630 -641 249 -252 504 -512 567
-576 63 -65 318 -324 567 -576 248 -253 532 -541 630 -641 98 -100 365 -371
593 -603 228 -232 489 -497 580 -590 91 -92 347 -353 570 -579 223 -227 493
-501 600 -611 107 -109 395 -402 640 -650 245 -249 507 -516 584 -594 76 -77
336 -341 577 -586 240 -245 501 -510 580 -590 78 -80 340 -347 583 -593 242
-246 512 -521 600 -610 87 -89 369 -376 626 -637 257 -261 535 -543 616 -627
82 -83 345 -350 584 -593 239 -243 502 -510 584 -594 81 -83 345 -351 586
-596 241 -245 499 -507 573 -582 143 -145 141 -141 62 -152 -22 -3 -60 -8 -85
-12 -25 -3 -61 -8 -80 -10 -30 -3 -93 -12 -210 -29 -14 -2 -79 -11 -145 -20
-66 -9 -131 -18 -145 -20 -14 -2 -50 -7 -80 -10 -30 -4 -62 -8 -70 -10 -8 -1
-37 -6 -65 -9 -27 -4 -61 -9 -75 -11 -14 -2 -47 -6 -75 -9 -27 -4 -61 -8 -75
-11 -14 -2 -41 -6 -60 -9 -19 -3 -73 -10 -120 -16 -47 -7 -96 -13 -110 -15
-14 -2 -63 -8 -110 -15 -47 -6 -98 -14 -115 -16 -16 -2 -43 -6 -60 -8 -16 -3
-48 -7 -70 -10 -40 -5 -314 -44 -370 -52 -16 -2 -50 -6 -75 -9 -48 -5 -122
-15 -155 -21 -11 -2 -58 -9 -105 -14 -47 -6 -92 -13 -100 -15 -8 -2 -42 -7
-75 -10 -62 -6 -112 -13 -155 -20 -14 -2 -43 -7 -65 -9 -43 -6 -323 -45 -365
-51 -22 -4 -196 -27 -305 -41 -22 -3 -51 -7 -65 -9 -14 -2 -45 -7 -70 -10 -25
-3 -72 -10 -105 -15 -33 -5 -80 -12 -105 -15 -25 -3 -76 -10 -115 -15 -38 -6
-88 -12 -110 -15 -22 -2 -85 -11 -140 -19 -55 -8 -124 -18 -154 -21 -30 -4
-61 -8 -70 -10 -9 -1 -43 -6 -76 -10 -32 -4 -68 -9 -80 -11 -11 -2 -40 -6 -65
-9 -54 -7 -186 -25 -216 -30 -12 -2 -48 -7 -80 -10 -33 -4 -67 -9 -78 -11 -10
-2 -44 -6 -75 -9 -31 -4 -63 -8 -71 -10 -8 -2 -37 -7 -65 -10 -27 -4 -61 -8
-75 -11 -25 -4 -140 -19 -215 -29 -22 -3 -51 -7 -65 -9 -14 -3 -45 -7 -70 -10
-25 -3 -61 -8 -80 -11 -19 -2 -57 -7 -85 -11 -27 -4 -59 -8 -70 -10 -11 -1
-40 -5 -65 -8 -79 -11 -124 -17 -151 -21 -14 -3 -43 -7 -65 -10 -21 -3 -55 -7
-74 -10 -19 -2 -53 -7 -75 -9 -22 -3 -71 -10 -110 -16 -38 -5 -90 -12 -115
-15 -25 -3 -52 -8 -60 -10 -8 -2 -42 -6 -75 -10 -33 -3 -87 -10 -120 -15 -33
-5 -80 -12 -105 -15 -25 -3 -56 -8 -70 -10 -14 -2 -97 -13 -185 -25 -88 -11
-191 -25 -230 -31 -38 -6 -81 -12 -95 -14 -105 -15 -182 -25 -220 -30 -25 -3
-56 -8 -70 -10 -14 -2 -50 -7 -80 -10 -30 -3 -62 -8 -70 -10 -8 -2 -37 -6 -65
-10 -27 -3 -61 -8 -75 -10 -14 -3 -45 -7 -70 -9 -25 -3 -76 -9 -115 -15 -38
-6 -86 -13 -105 -15 -19 -3 -53 -8 -75 -10 -38 -4 -242 -33 -295 -41 -14 -2
-63 -9 -110 -15 -47 -6 -95 -13 -106 -15 -12 -2 -48 -7 -80 -10 -33 -4 -68 -9
-79 -11 -11 -2 -45 -6 -75 -9 -30 -4 -62 -8 -70 -10 -8 -2 -33 -6 -55 -9 -122
-16 -204 -27 -221 -30 -25 -5 -97 -14 -159 -21 -27 -4 -75 -10 -105 -15 -30
-5 -75 -11 -100 -14 -25 -4 -56 -8 -70 -10 -14 -2 -52 -7 -85 -11 -32 -4 -67
-8 -76 -10 -9 -2 -40 -6 -69 -10 -29 -4 -60 -8 -69 -10 -9 -1 -41 -6 -72 -9
-31 -4 -65 -8 -75 -10 -11 -2 -41 -7 -69 -10 -27 -4 -63 -9 -80 -11 -16 -3
-84 -12 -150 -20 -122 -16 -135 -18 -215 -30 -25 -4 -56 -8 -70 -10 -14 -2
-43 -6 -65 -9 -22 -3 -62 -9 -90 -12 -27 -3 -57 -7 -65 -9 -8 -1 -40 -6 -70
-10 -30 -3 -67 -8 -81 -11 -15 -2 -47 -6 -70 -9 -24 -3 -55 -7 -69 -10 -14 -2
-49 -7 -79 -10 -30 -4 -61 -8 -70 -10 -9 -1 -41 -6 -71 -10 -30 -4 -63 -9 -73
-11 -10 -2 -46 -6 -80 -9 -34 -4 -64 -8 -67 -10 -3 -2 -32 -6 -65 -10 -33 -3
-71 -8 -85 -10 -27 -4 -99 -14 -140 -20 -29 -4 -94 -13 -150 -20 -69 -9 -115
-15 -140 -20 -13 -2 -44 -7 -69 -10 -25 -3 -55 -7 -66 -9 -11 -2 -47 -7 -80
-10 -33 -4 -71 -9 -85 -11 -80 -12 -322 -46 -360 -50 -25 -3 -56 -8 -70 -10
-14 -2 -43 -6 -65 -9 -63 -8 -256 -35 -297 -41 -67 -9 -102 -14 -153 -20 -27
-3 -61 -8 -75 -10 -14 -3 -45 -7 -70 -10 -25 -3 -57 -8 -71 -10 -15 -3 -44 -7
-65 -10 -22 -2 -59 -7 -83 -10 -23 -3 -55 -7 -70 -9 -33 -6 -95 -14 -146 -21
-22 -2 -58 -7 -80 -11 -68 -10 -87 -13 -175 -24 -85 -11 -124 -16 -170 -24
-14 -2 -51 -7 -84 -11 -32 -4 -68 -8 -80 -10 -17 -3 -88 -13 -211 -30 -11 -1
-45 -5 -75 -9 -30 -4 -66 -9 -80 -11 -40 -7 -81 -13 -137 -20 l-51 -6 -8 58
c-6 49 -13 17943 -7 17943 2 0 40 -38 85 -84z m37111 -8873 c-1 -4921 -4
-8957 -7 -8968 -2 -11 -5 -33 -5 -48 -1 -28 -1 -28 -53 -22 -59 7 -85 11 -143
20 -22 3 -55 8 -73 10 -60 8 -153 20 -222 30 -14 2 -45 6 -70 10 -25 3 -62 8
-83 11 -20 3 -47 7 -60 9 -12 1 -44 5 -72 9 -27 4 -66 9 -85 12 -19 3 -46 7
-60 9 -14 2 -45 6 -70 9 -109 14 -177 23 -220 31 -14 2 -47 7 -75 10 -27 3
-111 14 -185 25 -74 10 -157 21 -185 25 -27 3 -61 8 -75 10 -44 7 -93 13 -180
25 -47 6 -96 13 -110 15 -38 6 -262 37 -290 40 -45 5 -124 16 -150 20 -14 3
-47 7 -75 10 -27 3 -61 8 -75 10 -31 6 -84 14 -132 20 -21 2 -53 6 -70 9 -35
6 -54 9 -193 27 -49 6 -97 12 -105 14 -8 1 -42 5 -75 9 -33 4 -73 10 -90 13
-37 6 -54 8 -130 18 -33 4 -69 9 -80 11 -23 4 -61 10 -175 24 -47 6 -95 13
-106 15 -12 2 -48 7 -80 10 -33 4 -68 9 -79 11 -11 2 -40 6 -65 9 -25 3 -56 8
-70 10 -14 3 -45 7 -70 10 -87 11 -115 14 -150 20 -19 2 -53 7 -75 10 -23 3
-50 7 -60 9 -11 2 -47 7 -80 11 -78 10 -94 12 -130 18 -16 3 -59 9 -95 12 -36
4 -74 9 -85 11 -11 2 -40 7 -65 10 -25 3 -56 7 -70 9 -22 4 -173 25 -295 41
-22 3 -51 7 -65 9 -14 2 -45 7 -69 10 -23 3 -55 7 -70 9 -14 3 -48 7 -76 11
-27 3 -61 8 -75 10 -14 2 -63 9 -110 15 -47 6 -96 13 -110 15 -54 8 -398 55
-440 60 -25 3 -56 7 -70 10 -14 3 -43 7 -65 10 -22 2 -73 9 -113 15 -40 5 -91
12 -115 15 -23 3 -51 7 -62 9 -11 2 -49 7 -85 12 -36 4 -67 8 -70 9 -3 1 -34
5 -70 9 -36 5 -74 10 -85 12 -11 3 -38 6 -60 9 -22 3 -58 8 -80 11 -72 10 -89
13 -145 20 -30 4 -64 8 -75 10 -11 1 -42 5 -70 9 -27 3 -61 8 -75 10 -14 2
-45 6 -70 10 -25 3 -74 10 -110 15 -36 5 -135 19 -220 30 -85 12 -166 23 -180
25 -44 7 -94 13 -155 21 -33 4 -62 8 -65 9 -3 1 -34 5 -70 9 -36 5 -74 10 -84
12 -11 2 -56 8 -100 14 -45 6 -92 13 -106 15 -14 2 -47 7 -75 10 -27 3 -61 7
-75 10 -25 4 -56 9 -140 20 -25 3 -61 8 -80 10 -19 3 -53 8 -75 10 -22 3 -71
9 -110 15 -38 5 -88 12 -110 15 -22 2 -49 6 -60 9 -11 2 -45 7 -75 11 -58 7
-81 10 -145 19 -22 3 -58 8 -80 11 -23 3 -50 7 -61 9 -11 2 -47 7 -79 11 -33
4 -68 9 -77 11 -9 1 -48 6 -85 9 -37 4 -70 9 -73 10 -3 2 -33 6 -65 10 -33 3
-67 8 -75 10 -14 4 -44 8 -142 20 -24 3 -54 8 -68 10 -14 2 -47 7 -75 10 -27
4 -59 8 -70 9 -11 2 -45 6 -75 10 -30 4 -66 9 -80 11 -14 2 -110 16 -215 30
-104 14 -201 28 -215 30 -14 2 -43 6 -65 9 -138 18 -203 27 -225 30 -14 2 -46
7 -71 10 -25 4 -57 8 -70 10 -31 5 -103 15 -154 21 -22 3 -139 19 -260 36
-121 16 -233 32 -250 34 -47 6 -118 16 -140 19 -11 2 -45 6 -75 10 -30 4 -66
9 -80 11 -14 2 -45 6 -70 10 -25 3 -56 8 -70 10 -25 4 -71 11 -145 20 -68 8
-199 26 -226 31 -15 2 -44 6 -65 9 -51 6 -81 11 -184 25 -47 7 -97 13 -113 15
-50 7 -192 26 -217 30 -14 2 -47 6 -73 10 -27 4 -56 8 -65 10 -10 1 -44 6 -77
9 -33 4 -67 9 -75 11 -8 2 -40 6 -70 10 -30 3 -66 7 -80 10 -14 2 -63 9 -110
15 -119 16 -140 19 -180 25 -35 5 -60 8 -155 21 -27 3 -59 8 -70 10 -11 2 -74
11 -140 19 -66 9 -131 18 -145 20 -14 3 -52 8 -85 11 -33 3 -62 8 -65 9 -3 2
-37 7 -75 10 -39 4 -72 8 -75 10 -5 3 -82 14 -140 20 -38 4 -183 25 -210 30
-13 3 -39 6 -57 7 -27 2 -30 4 -20 17 15 18 130 135 687 701 241 245 516 524
610 620 176 179 894 909 1145 1164 77 79 350 356 607 617 256 261 528 537 603
614 76 77 345 351 599 609 253 257 517 526 586 595 69 70 339 346 601 612 262
266 543 552 624 634 81 83 346 353 590 600 244 248 516 525 606 617 90 92 358
363 594 603 237 240 498 506 580 590 83 84 344 350 580 590 237 240 507 515
600 610 94 95 364 370 602 612 237 241 511 520 610 620 98 100 374 380 613
624 239 243 491 499 560 569 69 70 333 338 586 596 254 258 526 534 604 614
78 80 350 357 605 615 254 259 520 529 590 600 70 72 338 344 595 605 257 261
498 507 536 546 38 39 71 70 74 68 3 -1 4 -4029 3 -8951z m-7005 5883 c-57
-57 -303 -308 -548 -556 -245 -249 -578 -588 -741 -754 -163 -166 -373 -378
-465 -473 -93 -95 -359 -365 -590 -600 -232 -235 -491 -499 -575 -585 -85 -86
-357 -363 -605 -615 -249 -252 -507 -514 -574 -583 -68 -69 -320 -325 -561
-570 -240 -245 -513 -522 -606 -616 -92 -95 -364 -371 -603 -614 -239 -243
-513 -521 -608 -618 -96 -97 -373 -379 -617 -627 -244 -247 -512 -521 -596
-607 -85 -86 -343 -348 -574 -583 -231 -235 -487 -495 -569 -578 -82 -84 -361
-368 -621 -632 -260 -264 -529 -537 -597 -607 l-124 -127 1 2260 0 2261 265
154 c146 84 272 157 280 161 14 6 506 290 735 423 134 78 591 342 646 373 24
13 98 56 164 94 108 63 537 310 625 361 19 10 150 86 290 167 140 81 343 198
450 260 107 61 256 147 330 190 142 82 206 119 485 280 94 54 223 129 287 166
64 38 121 69 127 69 6 0 11 5 11 10 0 6 4 10 9 10 7 0 335 188 1021 585 107
62 212 122 233 134 21 12 107 61 190 110 84 48 303 175 487 281 184 106 367
211 405 234 39 22 86 50 106 61 46 26 321 184 360 208 17 9 119 68 227 131
108 62 253 146 322 186 69 39 166 95 215 124 50 28 97 55 106 61 9 5 44 26 79
45 35 19 70 40 79 45 16 10 140 82 211 123 117 67 242 139 360 207 74 43 173
100 220 127 47 26 92 52 100 57 8 5 110 64 225 130 116 67 302 175 415 240
113 66 206 120 208 120 1 1 -44 -46 -100 -103z m-23113 3 c39 -22 77 -44 85
-49 8 -5 56 -33 105 -61 50 -28 175 -100 279 -160 104 -60 191 -109 193 -109
2 0 24 -13 48 -30 24 -16 46 -30 48 -30 3 0 51 -27 107 -60 56 -33 103 -60
105 -60 1 0 42 -24 91 -53 49 -29 96 -56 104 -60 8 -4 22 -11 30 -17 13 -8 84
-50 230 -132 19 -11 78 -46 130 -76 52 -31 97 -57 100 -57 3 0 16 -8 30 -17
30 -19 323 -188 400 -231 30 -16 66 -38 80 -47 14 -9 50 -31 80 -47 30 -17 96
-54 145 -83 50 -28 108 -62 130 -75 22 -12 128 -73 235 -135 107 -62 209 -121
225 -130 101 -57 231 -133 240 -140 6 -4 35 -21 65 -38 30 -16 170 -96 310
-177 140 -81 275 -159 300 -173 25 -14 57 -33 72 -43 14 -11 29 -19 33 -19 3
0 57 -30 118 -67 62 -36 132 -77 157 -91 43 -24 339 -193 370 -212 44 -26 380
-221 465 -269 69 -39 87 -50 210 -121 50 -29 106 -62 125 -72 19 -11 123 -71
230 -133 107 -62 326 -188 485 -280 290 -167 365 -211 397 -230 9 -5 29 -17
45 -26 28 -16 335 -193 363 -210 8 -5 112 -64 230 -132 212 -122 729 -419 792
-456 95 -55 287 -166 313 -181 17 -9 219 -126 450 -260 231 -134 438 -253 460
-265 22 -12 96 -55 165 -95 69 -40 139 -80 155 -90 17 -9 102 -59 190 -110 88
-51 176 -102 195 -112 19 -11 60 -34 90 -51 30 -18 64 -37 75 -42 20 -11 20
-21 21 -2272 l0 -2262 -160 164 c-89 91 -343 350 -566 576 -223 226 -463 470
-534 542 -71 73 -339 346 -597 607 -257 261 -543 552 -636 647 -92 94 -350
356 -573 583 -223 226 -481 489 -574 583 -93 95 -379 386 -636 647 -257 261
-523 531 -590 600 -67 69 -337 343 -600 610 -263 267 -537 546 -610 620 -73
74 -331 337 -574 583 -242 247 -511 520 -596 607 -85 87 -363 369 -616 627
-254 257 -524 532 -600 610 -77 78 -330 336 -564 573 -234 237 -496 504 -583
593 -88 89 -266 270 -396 403 -131 132 -241 246 -246 254 -4 7 12 1 36 -14 24
-15 76 -45 114 -67z m10101 -20544 c0 -2808 -2 -5105 -4 -5105 -2 0 -30 15
-61 34 -31 19 -72 43 -92 54 -19 11 -93 53 -165 94 -71 42 -439 254 -819 473
-379 218 -719 414 -755 435 -130 76 -376 218 -410 238 -63 35 -562 323 -594
343 -17 10 -48 28 -69 39 -20 11 -178 102 -350 202 -171 99 -330 191 -352 203
-41 24 -180 104 -413 239 -74 43 -153 88 -177 102 -24 13 -94 53 -155 89 -61
36 -115 65 -121 65 -5 0 -9 5 -9 10 0 6 -4 10 -9 10 -7 0 -301 167 -423 240
-18 11 -55 31 -83 46 -27 15 -68 38 -90 52 -22 14 -49 30 -60 36 -11 6 -139
80 -285 164 -146 85 -272 157 -280 162 -8 5 -42 24 -75 43 -33 19 -78 45 -100
57 -22 13 -53 31 -70 41 -16 11 -41 25 -55 32 -14 6 -36 19 -50 28 -21 14
-218 128 -720 417 -52 30 -111 63 -130 74 -19 12 -51 29 -70 40 -19 11 -48 28
-65 39 -16 10 -37 22 -45 26 -8 3 -31 16 -50 28 -19 12 -60 35 -90 52 -30 17
-122 69 -203 117 -82 47 -151 86 -154 86 -2 0 -24 14 -48 30 -24 17 -46 30
-49 30 -3 0 -35 18 -71 40 -36 22 -67 40 -69 40 -2 0 -55 30 -117 67 -107 62
-159 92 -219 126 -14 8 -124 71 -245 142 -121 70 -245 141 -275 158 -30 17
-84 48 -119 69 -34 21 -65 38 -68 38 -2 0 -29 16 -59 35 -30 19 -56 35 -58 35
-2 0 -71 39 -153 86 -211 123 -460 267 -513 296 -25 14 -112 65 -195 113 -82
48 -170 99 -195 113 -25 13 -70 39 -100 57 -51 31 -593 344 -670 388 -19 10
-80 45 -135 77 -55 32 -116 67 -135 78 -19 11 -134 77 -255 147 -121 70 -238
137 -260 150 -22 12 -170 98 -330 190 -316 183 -590 341 -645 372 -19 11 -86
50 -149 87 -62 36 -115 66 -117 66 -3 0 -41 23 -85 50 -44 28 -83 50 -85 50
-2 0 -80 44 -172 98 -92 54 -174 101 -182 105 -8 4 -28 15 -45 25 -36 22 -611
355 -673 389 -113 63 -156 93 -137 94 11 0 29 2 40 4 11 2 40 7 65 10 25 3 56
8 70 10 47 7 195 27 230 31 19 2 51 6 70 10 19 3 49 8 65 10 17 2 46 6 65 9
19 2 58 7 85 11 28 3 77 9 110 14 33 5 80 12 105 15 25 3 56 8 70 10 46 7 195
27 220 30 29 3 128 16 150 20 8 2 38 6 65 9 110 15 408 56 433 60 15 3 50 7
77 11 28 4 62 8 78 10 15 2 64 9 110 15 86 11 135 18 177 25 14 2 48 6 75 10
28 3 77 10 110 15 70 10 148 21 190 25 17 2 44 6 60 9 50 8 108 16 150 21 22
2 85 11 140 19 55 8 123 18 151 21 28 3 59 7 70 9 10 2 44 7 74 11 30 3 66 8
80 10 14 2 45 7 70 10 25 3 72 10 105 15 33 5 83 12 110 15 28 3 61 7 75 10
38 7 91 14 155 21 32 3 68 8 79 10 12 2 41 7 66 10 25 3 56 7 70 9 14 2 48 7
75 10 28 3 75 10 105 15 30 5 78 11 105 15 28 3 61 7 75 10 14 2 45 7 70 10
25 2 55 7 67 9 12 3 49 7 82 11 33 3 68 7 78 9 10 2 43 7 73 11 30 4 64 9 75
11 11 1 40 5 65 8 25 4 140 19 255 35 116 16 280 39 366 51 85 11 166 22 180
25 29 4 114 16 149 20 33 4 109 15 140 20 14 3 50 7 80 10 30 3 64 8 75 10 11
2 43 7 70 10 28 3 77 10 110 15 58 9 89 13 185 25 25 3 56 7 70 10 14 2 45 7
70 10 25 3 72 10 105 15 33 5 86 12 118 15 32 4 67 8 79 10 11 3 46 7 77 11
31 3 58 8 61 9 3 2 34 6 70 10 36 3 72 8 80 10 8 2 33 6 55 9 22 3 78 10 125
16 47 6 96 13 110 15 14 3 77 12 140 20 63 9 133 18 155 21 22 3 49 7 60 9 41
5 131 17 155 20 14 2 45 7 70 10 25 3 56 8 70 10 14 2 95 13 180 25 85 11 169
22 185 25 17 2 53 7 80 10 28 3 61 8 75 10 14 3 42 7 63 10 80 11 105 14 187
25 47 6 96 13 110 15 14 2 43 6 65 9 22 3 87 12 145 20 58 9 125 18 150 21 25
3 56 7 70 9 14 2 63 9 110 15 47 7 150 21 230 32 80 11 163 22 185 25 22 3 51
7 65 9 14 2 45 6 70 10 25 3 56 8 70 10 14 2 49 7 79 10 30 4 62 8 71 10 9 2
41 6 71 10 30 3 61 8 69 10 8 2 40 6 70 9 30 3 64 8 76 10 12 2 45 7 75 11 30
3 65 8 79 10 14 2 43 6 65 9 22 3 90 12 150 21 151 21 154 22 290 40 66 8 135
18 152 20 18 3 115 16 215 30 101 14 203 28 228 31 25 4 56 8 70 10 14 1 39 5
55 8 17 3 57 8 89 12 33 3 68 8 79 10 18 3 126 18 204 29 59 7 119 16 143 20
14 3 50 7 80 10 48 5 96 12 210 30 14 2 50 6 80 10 30 3 66 8 80 10 14 2 45 7
70 10 25 4 56 8 70 10 14 2 45 7 70 10 25 3 90 12 145 19 55 8 125 18 155 21
30 3 62 8 70 10 8 2 40 7 70 10 30 3 62 8 70 10 8 2 42 6 75 10 33 3 67 8 75
10 8 2 40 6 70 10 30 3 91 11 135 18 44 7 89 14 101 15 l20 1 0 -5104z m2945
5090 c13 -2 80 -11 149 -20 69 -9 136 -18 150 -20 14 -2 43 -6 65 -9 22 -3
103 -15 180 -25 77 -11 163 -23 190 -26 28 -4 77 -10 110 -15 33 -5 83 -12
110 -15 28 -3 61 -8 75 -10 24 -4 74 -11 137 -19 135 -18 233 -32 283 -41 14
-2 50 -7 81 -10 31 -3 65 -7 75 -9 19 -4 91 -14 154 -22 74 -9 116 -15 140
-19 14 -2 45 -7 70 -10 25 -4 56 -8 70 -10 14 -2 50 -7 80 -10 30 -4 62 -9 70
-10 8 -1 40 -6 70 -10 30 -4 63 -9 72 -10 9 -2 43 -6 75 -10 32 -3 65 -8 73
-10 8 -2 38 -7 65 -10 28 -3 70 -8 95 -11 25 -3 52 -7 60 -9 8 -2 41 -7 73
-10 32 -4 66 -8 75 -10 9 -1 42 -6 72 -10 30 -3 66 -8 80 -10 60 -10 327 -47
359 -50 20 -2 50 -6 66 -9 17 -3 66 -10 110 -16 44 -6 91 -12 105 -14 14 -2
50 -7 80 -11 30 -4 64 -9 75 -10 11 -2 40 -7 65 -10 43 -5 95 -12 150 -20 22
-4 75 -11 150 -21 14 -1 49 -6 78 -9 29 -4 62 -8 73 -10 11 -2 72 -11 137 -20
64 -8 133 -18 152 -21 19 -2 69 -9 110 -15 41 -5 91 -12 110 -15 19 -3 49 -7
65 -9 29 -4 93 -13 145 -20 14 -2 48 -6 75 -10 28 -3 61 -8 75 -10 66 -10 109
-16 287 -40 16 -2 51 -6 78 -10 28 -3 61 -8 75 -10 14 -3 48 -7 75 -10 28 -3
61 -8 75 -10 24 -5 69 -11 135 -20 79 -10 132 -17 155 -21 22 -3 86 -12 218
-30 17 -2 48 -6 67 -9 67 -10 100 -14 175 -24 41 -6 94 -13 117 -16 23 -3 55
-7 70 -9 94 -13 202 -28 223 -31 14 -3 45 -7 70 -10 25 -4 90 -12 145 -20 55
-8 170 -23 255 -35 85 -11 166 -22 180 -24 24 -4 81 -12 160 -22 19 -2 46 -6
60 -9 14 -2 49 -7 79 -10 30 -4 62 -8 72 -10 9 -2 39 -6 66 -10 75 -10 113
-15 183 -25 36 -5 88 -12 115 -15 28 -3 68 -8 90 -12 43 -6 54 -8 130 -18 28
-3 61 -8 75 -10 14 -2 45 -7 70 -10 25 -4 56 -8 70 -10 23 -4 157 -22 223 -30
97 -13 196 -27 218 -30 31 -6 127 -19 219 -30 46 -6 120 -17 144 -21 10 -2 44
-6 75 -9 31 -4 63 -8 71 -10 8 -2 41 -7 73 -10 32 -4 66 -8 75 -9 27 -6 94
-15 142 -21 25 -3 56 -8 70 -10 14 -2 48 -7 75 -10 70 -8 96 -12 215 -29 58
-8 128 -18 155 -22 28 -3 60 -8 72 -9 13 -2 40 -6 60 -9 21 -3 58 -8 83 -11
25 -4 56 -8 70 -10 14 -2 63 -9 110 -15 47 -7 94 -13 105 -15 11 -1 43 -6 70
-9 28 -4 66 -9 85 -12 19 -3 55 -7 80 -10 45 -5 82 -10 130 -19 14 -2 46 -7
72 -10 26 -3 78 -9 115 -15 38 -5 91 -12 118 -15 28 -4 57 -8 65 -10 8 -2 42
-7 75 -10 33 -4 67 -8 75 -10 8 -2 38 -7 65 -10 47 -5 71 -8 140 -19 17 -2 53
-7 80 -11 87 -11 256 -34 295 -40 14 -3 50 -7 80 -10 30 -4 62 -8 70 -10 8 -2
38 -7 65 -10 66 -8 145 -19 211 -30 12 -2 48 -7 80 -10 33 -4 67 -9 78 -11 10
-2 44 -6 75 -9 31 -4 63 -8 71 -10 8 -2 42 -7 75 -10 33 -4 67 -8 75 -10 15
-4 62 -11 135 -20 53 -6 124 -16 155 -21 41 -6 183 -26 210 -29 14 -2 45 -6
70 -9 169 -22 271 -38 268 -41 -2 -2 -120 -70 -263 -153 -143 -82 -311 -179
-374 -216 -62 -36 -115 -66 -117 -66 -2 0 -32 -17 -66 -38 -35 -21 -70 -41
-78 -45 -8 -4 -28 -15 -45 -26 -42 -25 -341 -199 -390 -226 -22 -13 -123 -71
-225 -130 -102 -59 -203 -117 -225 -130 -38 -21 -231 -133 -595 -343 -91 -52
-178 -103 -195 -112 -16 -10 -149 -86 -295 -170 -146 -85 -348 -201 -450 -260
-102 -59 -243 -141 -315 -182 -71 -41 -323 -187 -560 -323 -236 -136 -443
-256 -460 -265 -16 -10 -73 -42 -125 -72 -52 -30 -140 -81 -195 -113 -55 -32
-114 -66 -131 -75 -31 -18 -110 -63 -544 -315 -140 -81 -275 -159 -300 -173
-25 -13 -70 -39 -100 -57 -30 -18 -116 -68 -190 -110 -74 -43 -175 -101 -225
-130 -120 -69 -226 -130 -267 -154 -18 -10 -73 -42 -123 -71 -49 -29 -106 -61
-125 -72 -19 -11 -64 -37 -100 -58 -36 -21 -90 -52 -120 -69 -62 -36 -193
-111 -218 -126 -9 -6 -53 -31 -97 -56 -75 -42 -1865 -1075 -2075 -1197 -52
-30 -201 -115 -330 -190 -129 -74 -239 -138 -245 -142 -5 -4 -30 -19 -55 -32
-25 -14 -61 -34 -80 -45 -97 -56 -301 -174 -328 -190 -17 -10 -107 -61 -199
-115 -92 -53 -235 -135 -318 -183 -82 -48 -168 -97 -190 -110 -22 -12 -125
-72 -230 -132 -220 -127 -447 -258 -490 -283 -16 -10 -174 -100 -350 -202
-176 -101 -351 -202 -388 -224 -38 -21 -83 -47 -100 -58 -18 -10 -243 -140
-502 -288 -258 -149 -482 -279 -497 -289 -15 -11 -29 -19 -31 -19 -2 0 -82
-45 -177 -100 -94 -56 -177 -102 -183 -103 -9 -1 -12 1315 -12 5101 l-1 5104
42 -7 c22 -3 52 -8 65 -10z"/>
<path d="M10095 21263 c-59 -3 -217 -19 -285 -29 -181 -28 -434 -110 -616
-199 -109 -54 -346 -199 -364 -224 -3 -3 -25 -22 -49 -40 -230 -180 -449 -456
-587 -738 -35 -73 -64 -138 -64 -145 0 -8 -4 -18 -10 -24 -13 -13 -85 -252
-104 -346 -38 -185 -45 -270 -41 -488 2 -107 6 -211 9 -230 4 -19 8 -52 11
-72 4 -31 30 -156 39 -193 2 -5 6 -23 10 -40 18 -69 81 -245 113 -315 65 -141
78 -165 127 -245 46 -75 105 -164 116 -175 3 -3 18 -22 33 -42 67 -90 224
-253 317 -328 30 -25 57 -48 60 -51 20 -27 280 -188 390 -241 310 -152 610
-221 955 -221 178 0 218 2 345 22 113 18 133 22 243 52 861 233 1505 982 1604
1867 10 88 10 430 0 510 -47 377 -195 746 -421 1050 -385 517 -974 837 -1616
878 -150 9 -152 9 -215 7z"/>
<path d="M39827 21264 c-1 -1 -56 -4 -122 -8 -122 -6 -258 -25 -337 -46 -23
-7 -50 -13 -58 -15 -70 -13 -196 -55 -310 -102 -360 -148 -692 -409 -922 -723
-201 -274 -328 -568 -392 -903 -25 -129 -31 -207 -31 -397 0 -213 6 -279 40
-447 137 -667 578 -1232 1195 -1530 231 -112 436 -171 725 -209 92 -12 359
-11 474 3 815 93 1506 624 1804 1389 63 161 119 385 135 539 9 93 9 422 -1
509 -29 265 -146 612 -284 851 -128 219 -345 468 -538 616 -16 13 -32 26 -35
29 -10 10 -156 108 -195 130 -170 96 -265 140 -412 191 -179 62 -379 103 -558
114 -61 4 -125 8 -143 9 -18 1 -33 1 -35 0z"/>
</g>
</svg>
